<?xml version="1.0" standalone="no"?>
<!DOCTYPE svg PUBLIC "-//W3C//DTD SVG 20010904//EN"
 "http://www.w3.org/TR/2001/REC-SVG-20010904/DTD/svg10.dtd">
<svg version="1.0" xmlns="http://www.w3.org/2000/svg"
 width="700.000000pt" height="700.000000pt" viewBox="0 0 700.000000 700.000000"
 preserveAspectRatio="xMidYMid meet">
<metadata>
Created by potrace 1.11, written by Peter Selinger 2001-2013
</metadata>
<g transform="translate(0.000000,700.000000) scale(0.100000,-0.100000)"
fill="#000000" stroke="none">
<path d="M3269 6996 c-2 -2 -44 -7 -94 -10 -49 -4 -98 -9 -110 -11 -11 -2 -42
-7 -70 -10 -90 -10 -345 -65 -469 -101 -168 -49 -368 -125 -516 -197 -69 -33
-127 -61 -130 -61 -35 -8 -381 -227 -495 -315 -654 -501 -1106 -1197 -1294
-1991 -11 -47 -23 -101 -26 -120 -3 -19 -12 -71 -20 -115 -32 -185 -40 -294
-40 -560 1 -212 7 -353 19 -415 3 -14 7 -49 10 -77 4 -42 33 -204 51 -283 26
-118 88 -333 114 -395 5 -11 26 -65 46 -120 127 -335 372 -737 618 -1015 156
-175 324 -334 497 -466 245 -189 496 -335 784 -458 170 -73 443 -161 566 -182
14 -3 39 -9 55 -14 17 -4 53 -12 80 -16 28 -4 57 -9 65 -11 46 -10 229 -33
315 -39 181 -13 569 -7 661 10 10 2 46 7 79 11 81 10 94 12 290 50 126 24 403
111 560 175 289 118 632 316 831 479 17 14 42 35 55 45 163 130 411 379 520
521 13 17 26 32 29 35 3 3 35 46 71 95 162 222 263 400 399 700 132 291 241
740 267 1105 13 172 6 546 -11 650 -3 14 -7 50 -10 80 -28 251 -116 582 -229
857 -357 868 -1054 1565 -1917 1915 -260 105 -583 193 -820 223 -8 1 -39 5
-68 9 -30 4 -75 10 -100 12 -56 6 -558 15 -563 10z m486 -450 c110 -11 209
-23 245 -31 14 -2 41 -7 60 -10 19 -4 55 -11 80 -16 25 -6 56 -13 70 -15 14
-3 86 -23 160 -45 941 -280 1693 -1001 2015 -1929 62 -179 101 -341 140 -575
1 -11 6 -56 10 -100 4 -44 9 -91 11 -105 6 -40 5 -390 0 -445 -23 -213 -26
-237 -57 -390 -12 -55 -23 -111 -25 -125 -3 -14 -7 -32 -10 -40 -3 -8 -21 -65
-40 -127 -141 -466 -397 -887 -759 -1249 -308 -308 -656 -537 -1049 -689 -100
-39 -227 -81 -266 -90 -8 -1 -40 -10 -70 -19 -59 -16 -63 -17 -215 -46 -138
-25 -181 -31 -335 -45 -76 -7 -371 -7 -450 0 -261 24 -479 66 -711 140 -63 20
-123 40 -134 45 -172 72 -245 105 -320 143 -44 22 -104 56 -133 74 -29 18 -55
33 -58 33 -2 0 -52 33 -111 73 -58 39 -115 79 -127 87 -133 91 -398 342 -526
500 -25 30 -47 57 -50 60 -54 53 -262 379 -332 520 -46 94 -98 212 -98 223 0
7 -4 17 -9 22 -5 6 -28 63 -50 128 -58 170 -112 392 -137 572 -2 17 -7 44 -9
60 -24 147 -24 601 0 724 2 10 6 44 9 75 21 191 123 553 220 780 151 350 373
675 645 946 407 404 892 678 1433 808 110 27 157 36 293 58 169 27 515 37 690
20z"/>
<path d="M2900 5628 c-16 -9 -33 -30 -37 -45 -4 -15 -7 -280 -7 -589 -1 -624
-3 -603 66 -622 18 -4 286 -8 595 -8 l563 1 27 28 28 27 1 567 c1 312 -2 578
-5 592 -4 14 -20 34 -35 45 -27 21 -37 21 -597 22 -530 0 -572 -1 -599 -18z"/>
<path d="M4464 4162 c-19 -2 -43 -15 -60 -33 l-29 -30 0 -573 c0 -533 1 -574
18 -600 10 -15 30 -31 44 -37 37 -14 1136 -12 1168 3 52 23 52 25 52 631 1
540 0 563 -19 594 -14 24 -29 34 -56 39 -36 7 -1055 12 -1118 6z"/>
<path d="M1340 2731 c0 -20 170 -297 227 -371 200 -258 405 -455 635 -608 261
-175 642 -323 917 -358 25 -3 47 -7 50 -9 29 -17 390 -25 546 -12 278 23 604
121 865 259 317 167 571 383 818 694 63 80 252 384 252 405 0 2 -970 4 -2155
4 -1185 0 -2155 -2 -2155 -4z"/>
</g>
</svg>
